<svg width="96" height="100" viewBox="0 0 96 100" fill="none" xmlns="http://www.w3.org/2000/svg">
<path d="M95.8025 56.2738C95.8179 56.1036 95.8334 55.9326 95.8469 55.7615C97.9325 29.8726 78.4295 7.17653 52.2865 5.06641L48.4706 52.4537L95.8025 56.2738Z" fill="#57C0AC"/>
<path d="M48.3962 52.2412L86.2223 80.9961C91.5887 73.9375 94.8652 65.511 95.6779 56.678C95.7049 56.3893 95.7291 56.0993 95.7503 55.808L48.3962 52.2412Z" fill="#B6B6B6"/>
<path d="M44.1329 46.9655L49.5265 0.315711C27.7834 -2.20329 7.77738 10.4033 -0.00585938 29.8033L43.7854 47.1714C43.8216 47.1863 43.8607 47.1926 43.8998 47.1898C43.9388 47.1869 43.9767 47.1751 44.0104 47.1551C44.0441 47.1352 44.0727 47.1077 44.094 47.0748C44.1152 47.0419 44.1286 47.0045 44.1329 46.9655Z" fill="#228F7A"/>
<path d="M48.5612 52.274L4.05642 35.9111C2.56272 39.794 1.82698 43.2197 1.39152 47.5588C-0.636119 67.8065 10.3392 86.3559 27.5278 94.8998L48.5612 52.274Z" fill="#7CD89B"/>
<path d="M48.5712 52.5305V52.4918L48.5558 52.5227L48.466 52.4541L48.4254 52.7808L27.1053 94.9107C31.9573 97.3706 37.1963 98.9751 42.5926 99.6539V99.6297C42.8687 99.6636 43.1458 99.6974 43.423 99.7264C60.572 101.563 76.5623 94.0147 86.293 81.209L48.5712 52.5305Z" fill="#37A6D5"/>
</svg>
