<svg width="143" height="100" viewBox="0 0 143 100" fill="none" xmlns="http://www.w3.org/2000/svg">
<path d="M89.7097 89.6652L116.735 37.8561H111.198C110.177 37.8561 109.615 36.6687 110.263 35.8787L139.066 0.748673C140.313 -0.773977 142.781 0.19158 142.665 2.15751L140.639 36.5081C140.612 36.974 140.49 37.4295 140.281 37.8467C140.072 38.2639 139.78 38.6339 139.423 38.9342C139.066 39.2346 138.651 39.4588 138.205 39.5932C137.758 39.7276 137.289 39.7694 136.825 39.716L132.965 39.2738L106.151 97.3855C105.809 98.1264 105.262 98.7538 104.575 99.1936C103.888 99.6333 103.09 99.867 102.274 99.8669H92.9784L89.7097 89.6652Z" fill="#3DA689"/>
<path d="M67.3657 53.3294L86.4449 95.7396C86.9981 96.9694 87.8946 98.013 89.0263 98.7452C90.1581 99.4774 91.4772 99.8669 92.8249 99.8669H102.661C103.302 99.8669 103.931 99.6954 104.483 99.3701C105.035 99.0448 105.49 98.5776 105.801 98.0169L106.151 97.3854C105.633 97.3856 105.124 97.2423 104.682 96.9715C104.24 96.7007 103.882 96.3128 103.646 95.8509L78.2254 46.0093L67.3657 53.3294Z" fill="url(#paint0_linear_1_354)"/>
<path d="M80.7925 51.0439C80.3401 50.6865 79.8187 50.4266 79.261 50.2809C78.7033 50.1351 78.1214 50.1066 77.5522 50.1971C76.9829 50.2875 76.4385 50.4951 75.9534 50.8066C75.4683 51.1181 75.0529 51.5268 74.7335 52.0069L46.6813 94.1812C45.5752 95.8441 44.0757 97.2078 42.3161 98.1511C40.5564 99.0945 38.5911 99.5882 36.5949 99.5884H32.648L29.4359 90.3283C29.4359 90.3283 55.5141 50.3133 62.2358 44.2622C62.2358 44.2622 68.9294 38.2251 75.5306 42.7894C77.274 43.9956 78.5978 45.7162 79.4064 47.6744L80.7925 51.0439Z" fill="url(#paint1_linear_1_354)"/>
<path d="M0.637836 63.7291C2.75151 61.9195 6.80489 59.2302 12.719 58.6362C12.719 58.6362 17.0409 60.1095 25.6503 75.5475C34.2598 90.9855 39.975 98.0256 46.6832 94.1805L46.1265 95.1045C45.227 96.5991 43.9566 97.8357 42.4386 98.694C40.9206 99.5524 39.2066 100.003 37.463 100.003H33.754C31.7413 100.004 29.7573 99.5248 27.966 98.6064C26.1748 97.688 24.6275 96.3564 23.452 94.7215C17.5135 86.4586 6.07055 70.9697 0.677825 66.5436C0.469507 66.3744 0.300845 66.1616 0.183754 65.92C0.0666641 65.6785 0.00399913 65.4141 0.00018521 65.1457C-0.00362871 64.8772 0.0515029 64.6113 0.161684 64.3665C0.271864 64.1217 0.434408 63.9041 0.637836 63.7291Z" fill="#7CD89B"/>
<defs>
<linearGradient id="paint0_linear_1_354" x1="86.7583" y1="46.0093" x2="86.7583" y2="99.8669" gradientUnits="userSpaceOnUse">
<stop stop-color="#7CD89B"/>
<stop offset="1" stop-color="#47B59D"/>
</linearGradient>
<linearGradient id="paint1_linear_1_354" x1="81.9059" y1="69.7892" x2="23.7809" y2="70.9029" gradientUnits="userSpaceOnUse">
<stop stop-color="#3EAF9D"/>
<stop offset="1" stop-color="#55BE9C"/>
</linearGradient>
</defs>
</svg>
