<svg width="166" height="100" viewBox="0 0 166 100" fill="none" xmlns="http://www.w3.org/2000/svg">
<path d="M82.9998 0C37.1595 0 -9.92618e-05 37.0101 -9.92618e-05 82.6594C-0.00443244 88.4876 0.60866 94.2999 1.82899 100H27.2455C26.7212 98.3179 26.2654 96.6031 25.8901 94.8587C25.032 90.8485 24.6007 86.7595 24.6032 82.6594C24.6032 50.5444 50.7495 24.5112 82.9909 24.5112C115.232 24.5112 141.379 50.5503 141.379 82.6594C141.381 86.7595 140.95 90.8485 140.092 94.8587C139.716 96.6031 139.261 98.3179 138.736 100H164.156C165.375 94.2997 165.988 88.4875 165.985 82.6594C166 37.0101 128.837 0 82.9998 0Z" fill="#7CD89B"/>
<path d="M141.689 24.2118C126.124 8.712 105.014 0.00439453 83.003 0.00439453C60.9919 0.00439453 39.8822 8.712 24.3174 24.2118L41.7175 41.5406C47.1395 36.1399 53.5765 31.8559 60.6611 28.933C67.7457 26.0102 75.339 24.5058 83.0075 24.5058C90.6759 24.5058 98.2692 26.0102 105.354 28.933C112.438 31.8559 118.875 36.1399 124.297 41.5406L141.689 24.2118Z" fill="#57C0AC"/>
<path d="M141.688 24.2114L124.288 41.5402C131.177 48.4107 136.233 56.8871 138.996 66.1989C141.758 75.5106 142.14 85.3624 140.106 94.8585C139.731 96.6029 139.275 98.3177 138.751 99.9998H164.17C167.061 86.502 166.519 72.4986 162.592 59.2626C158.666 46.0267 151.48 33.9779 141.688 24.2114Z" fill="#228F7A"/>
<g style="mix-blend-mode:multiply">
<path d="M127.905 41.5874L79.9435 76.5712L82.705 79.4549C83.6728 80.4651 84.8455 81.2583 86.1452 81.7818C87.4448 82.3052 88.8416 82.547 90.2424 82.4908C91.6432 82.4347 93.0159 82.082 94.2691 81.4562C95.5223 80.8304 96.6273 79.9459 97.5104 78.8616L127.905 41.5874Z" fill="#B8B8B8"/>
</g>
<path d="M126.91 39.0396L78.9607 74.0085L89.4586 84.9796L126.91 39.0396Z" fill="#43B39D"/>
<path d="M91.7138 81.7602C91.6498 82.4196 91.518 83.0707 91.3206 83.7034C90.6715 85.7534 89.3362 87.5196 87.5373 88.7074C85.7384 89.8951 83.5848 90.4325 81.4361 90.2297C79.2874 90.027 77.2735 89.0964 75.7306 87.5934C74.1877 86.0903 73.2092 84.1057 72.9583 81.9708C72.8796 81.3129 72.8726 80.6484 72.9374 79.989C73.0154 78.7317 73.3466 77.5028 73.9113 76.3756C74.476 75.2484 75.2625 74.2457 76.2242 73.4274C77.1859 72.6091 78.303 71.9918 79.5092 71.6123C80.7153 71.2327 81.9858 71.0987 83.245 71.2181C84.5042 71.3375 85.7264 71.708 86.839 72.3075C87.9515 72.9069 88.9315 73.7232 89.7208 74.7075C90.5101 75.6919 91.0925 76.8244 91.4334 78.0375C91.7742 79.2507 91.8665 80.5197 91.7049 81.7691L91.7138 81.7602Z" fill="#297A6A"/>
<path d="M88.1567 81.4253C88.1188 81.8353 88.0369 82.2401 87.9125 82.6327C87.5084 83.9053 86.6786 85.0016 85.5612 85.7386C84.4439 86.4757 83.1066 86.809 81.7724 86.683C80.4382 86.5571 79.1876 85.9794 78.2293 85.0464C77.2709 84.1134 76.6627 82.8813 76.506 81.5558C76.4612 81.1466 76.4612 80.7338 76.506 80.3246C76.5786 79.562 76.8012 78.821 77.1613 78.1441C77.5214 77.4672 78.0119 76.8675 78.6047 76.3793C79.1975 75.8912 79.8811 75.5241 80.6163 75.299C81.3516 75.0739 82.1241 74.9952 82.8899 75.0675C83.6557 75.1398 84.3997 75.3616 85.0794 75.7202C85.7591 76.0788 86.3613 76.5673 86.8514 77.1576C87.3416 77.748 87.7102 78.4287 87.9362 79.161C88.1622 79.8932 88.2412 80.6626 88.1686 81.4253H88.1567Z" fill="#43B39D"/>
</svg>
