<svg width="97" height="100" viewBox="0 0 97 100" fill="none" xmlns="http://www.w3.org/2000/svg">
<path d="M48.5 100C48.2072 100 47.9148 99.9755 47.6261 99.9264C47.287 99.8719 44.1852 99.3088 39.693 97.3959C37.0324 96.2584 34.4671 94.9107 32.0215 93.3656C28.9022 91.3941 25.9781 89.1306 23.2887 86.6058C16.4507 80.1961 11.0179 72.0876 7.14228 62.5056C4.87676 56.9043 3.12683 50.7305 1.94164 44.1638C0.655406 37.0197 5.45534e-09 29.223 5.45534e-09 20.9908C-4.61409e-05 19.9852 0.292671 19.0012 0.842552 18.1585C1.39243 17.3158 2.17578 16.6508 3.09734 16.2443L38.9262 0.442763C39.5507 0.167324 40.2234 0.017355 40.906 0.00141914C41.5886 -0.0145168 42.2676 0.103892 42.9043 0.349886C43.541 0.59588 44.123 0.96464 44.6169 1.43511C45.1109 1.90559 45.5071 2.46856 45.7831 3.09188C46.059 3.71521 46.2093 4.38669 46.2253 5.06797C46.2412 5.74926 46.1226 6.42701 45.8761 7.06253C45.6297 7.69806 45.2602 8.2789 44.7888 8.77191C44.3175 9.26492 43.7535 9.66044 43.129 9.93588L10.4379 24.3538C10.7426 37.2513 12.8159 48.6203 16.6129 58.1892C19.8462 66.338 24.3363 73.2095 29.958 78.6135C34.9489 83.4108 39.953 86.1654 43.2688 87.6307C45.5081 88.6207 47.3104 89.1751 48.3689 89.4559C49.434 89.12 51.2543 88.4713 53.521 87.3707C56.8706 85.744 61.9222 82.762 66.96 77.7936C72.6195 72.213 77.1352 65.2869 80.3827 57.2074C84.1704 47.7846 86.2442 36.7465 86.5594 24.3527L74.8478 19.1875L49.0462 64.7822C48.6519 65.4788 48.1015 66.075 47.4381 66.5241C46.7747 66.9733 46.0163 67.2633 45.222 67.3714C44.4277 67.4796 43.6192 67.403 42.8595 67.1476C42.0998 66.8922 41.4095 66.4649 40.8427 65.8991L27.2889 52.3703C26.8061 51.8885 26.4232 51.3164 26.1619 50.6868C25.9006 50.0572 25.7661 49.3824 25.7661 48.701C25.7661 47.3247 26.3139 46.0048 27.2889 45.0316C28.2639 44.0584 29.5863 43.5117 30.9652 43.5117C32.344 43.5117 33.6664 44.0584 34.6415 45.0316L43.3578 53.7316L68.1114 9.98658C68.7462 8.86484 69.7764 8.01891 71.0015 7.61335C72.2266 7.20779 73.5591 7.2716 74.7397 7.79238L93.9021 16.2421C94.8241 16.6487 95.6078 17.314 96.1578 18.1571C96.7078 19.0002 97.0004 19.9847 97 20.9908C97 36.287 94.5968 49.9259 89.849 61.5276C85.9832 70.9799 80.5712 79.1025 73.7637 85.6687C62.0248 96.9935 50.1418 99.7612 49.6415 99.8735C49.2669 99.9577 48.884 100 48.5 100Z" fill="url(#paint0_linear_1_349)"/>
<defs>
<linearGradient id="paint0_linear_1_349" x1="1.35833" y1="19.7027" x2="95.1586" y2="73.376" gradientUnits="userSpaceOnUse">
<stop stop-color="#8CE39B"/>
<stop offset="1" stop-color="#28A09D"/>
</linearGradient>
</defs>
</svg>
